<?xml version="1.0" encoding="utf-8"?>
<!-- Generator: Adobe Illustrator 24.0.1, SVG Export Plug-In . SVG Version: 6.00 Build 0)  -->
<svg version="1.1" id="Layer_1" xmlns="http://www.w3.org/2000/svg" xmlns:xlink="http://www.w3.org/1999/xlink" x="0px" y="0px"
	 width="16px" height="16px" viewBox="0 0 16 16" enable-background="new 0 0 16 16" xml:space="preserve">
<path id="path-1_1_" fill-rule="evenodd" clip-rule="evenodd" fill="#181C56" d="M8,1c3.8659096,0,7,3.1340909,7,7s-3.1340904,7-7,7
	s-7-3.1340904-7-7S4.1340909,1,8,1z M8,2.4000001C4.9072895,2.4000001,2.4000001,4.9072895,2.4000001,8
	S4.9072895,13.6000004,8,13.6000004S13.6000004,11.0927105,13.6000004,8S11.0927105,2.4000001,8,2.4000001z M8.6999998,4v3.3000002
	H12v1.3999996H8c-0.3543825,0-0.6472583-0.2633438-0.6936097-0.6050138L7.3000002,8V4H8.6999998z"/>
</svg>
