<?xml version="1.0" encoding="utf-8"?>
<!-- Generator: Adobe Illustrator 25.2.0, SVG Export Plug-In . SVG Version: 6.00 Build 0)  -->
<svg version="1.1" id="Layer_1" xmlns="http://www.w3.org/2000/svg" xmlns:xlink="http://www.w3.org/1999/xlink" x="0px" y="0px"
	 viewBox="0 0 24 24" enable-background="new 0 0 24 24" xml:space="preserve">
<g>
	<path fill="#181C56" d="M12,22.9091797c-2.2182617,0-4.140625-1.4257812-4.784668-3.5488281
		c-0.5942383-1.9599609,0.0483398-4.0332031,1.6030273-5.3085938V4.2724609c0-1.7543945,1.4272461-3.1816406,3.1816406-3.1816406
		c1.7539062,0,3.1816406,1.4272461,3.1816406,3.1816406v9.7792969c1.5546875,1.2763672,2.1972656,3.3486328,1.6025391,5.3085938
		C16.140625,21.4824219,14.21875,22.9091797,12,22.9091797z M12,2.9091797c-0.7519531,0-1.3632812,0.6113281-1.3632812,1.3632812
		v10.2353516c0,0.3037109-0.1518555,0.5869141-0.4042969,0.7558594c-1.1733398,0.7841797-1.6865234,2.21875-1.2768555,3.5693359
		C9.3647461,20.1835938,10.5883789,21.0908203,12,21.0908203c1.4121094,0,2.6347656-0.9072266,3.0439453-2.2578125
		c0.4101562-1.3505859-0.1025391-2.7851562-1.2763672-3.5693359c-0.2529297-0.1689453-0.4042969-0.4521484-0.4042969-0.7558594
		V4.2724609C13.3632812,3.5205078,12.7519531,2.9091797,12,2.9091797z"/>
</g>
<circle fill="#181C56" cx="11.9534883" cy="17.9079304" r="2.145376"/>
</svg>
