<?xml version="1.0" encoding="utf-8"?>
<!-- Generator: Adobe Illustrator 25.2.0, SVG Export Plug-In . SVG Version: 6.00 Build 0)  -->
<svg version="1.1" id="Layer_1" xmlns="http://www.w3.org/2000/svg" xmlns:xlink="http://www.w3.org/1999/xlink" x="0px" y="0px"
	 viewBox="0 0 24 24" enable-background="new 0 0 24 24" xml:space="preserve">
<path fill="#181C56" d="M12.0000067,1.916687c-5.6938472,0-10.4547729,4.328125-10.9958496,9.9962158
	c-0.0245362,0.257019,0.0605469,0.5126343,0.2342529,0.7037354c0.1737061,0.19104,0.4199829,0.3000488,0.6782837,0.3000488h9.166626
	v5.5c0,2.0249634,1.6416626,3.666626,3.666687,3.666626s3.666688-1.6416626,3.666688-3.666626
	c0-0.5062866-0.4104004-0.916687-0.916687-0.916687s-0.916687,0.4104004-0.916687,0.916687
	c0,1.0125122-0.8207407,1.833313-1.8333139,1.833313s-1.833313-0.8208008-1.833313-1.833313v-5.5h9.1666269
	c0.2582397,0,0.5045776-0.1090088,0.6782837-0.3000488c0.1737671-0.1911011,0.258728-0.4467163,0.2342529-0.7037354
	C22.4547806,6.244812,17.6938553,1.916687,12.0000067,1.916687z M12.0000067,3.75
	c4.4058237,0,8.1369638,3.1092529,9.013917,7.333313H2.9860301C3.8630443,6.8592529,7.5941234,3.75,12.0000067,3.75z"/>
</svg>
