<?xml version="1.0" encoding="utf-8"?>
<!-- Generator: Adobe Illustrator 25.2.0, SVG Export Plug-In . SVG Version: 6.00 Build 0)  -->
<svg version="1.1" id="Layer_1" xmlns="http://www.w3.org/2000/svg" xmlns:xlink="http://www.w3.org/1999/xlink" x="0px" y="0px"
	 viewBox="0 0 24 24" enable-background="new 0 0 24 24" xml:space="preserve">
<g>
	<path fill="#181C56" d="M2.0001886,8.9993992h9.0016975V8.999094c1.3591433,0.0037842,2.5511398-0.9060555,2.9053326-2.2183752
		c0.3545599-1.3137245-0.2193403-2.7015595-1.3981514-3.381253s-2.6674347-0.4810479-3.6267824,0.483978
		C8.4928684,4.2751803,8.4946995,4.9084783,8.8864975,5.297956c0.391736,0.3894167,1.025034,0.3875246,1.4144506-0.0042119
		c0.3197632-0.3216553,0.8160114-0.3878908,1.2089071-0.1613464c0.3929577,0.2265439,0.5842171,0.6892166,0.4660912,1.1271048
		c-0.118186,0.4378877-0.5162716,0.7414727-0.9698477,0.7395802l-0.0042124,1.0001278l0.0042124-1.0001888h-0.0042124H2.0001886
		C1.4478383,6.9990215,1,7.4468598,1,7.9992104C1,8.5516214,1.4478383,8.9993992,2.0001886,8.9993992z"/>
	<path fill="#181C56" d="M14.0024519,15.0008354v-0.0003052H2.0001886C1.4478383,15.0005302,1,15.448308,1,16.0007191
		c0,0.552412,0.4478383,1.0001888,1.0001886,1.0001888h12.0022631h0.0042124
		c0.453577-0.0018921,0.8516617,0.3016319,0.9698486,0.7395191c0.118125,0.4380093-0.0730734,0.9005604-0.4660912,1.1271057
		c-0.3929577,0.2265434-0.8891449,0.160368-1.2089071-0.1612854c-0.3894777-0.391798-1.0227156-0.393568-1.4144516-0.0042133
		c-0.391798,0.3894787-0.3936291,1.0227757-0.0042124,1.4144516c0.9594097,0.965086,2.4479713,1.1637325,3.6267824,0.4841003
		c1.1788111-0.6797543,1.7527113-2.0675907,1.3981524-3.3813133C16.5535927,15.9068909,15.3615952,14.9971123,14.0024519,15.0008354
		z"/>
	<path fill="#181C56" d="M21.2500954,6.4682817c-1.370863-0.7918973-3.1024532-0.5652308-4.2232685,0.5527778
		c-0.3910656,0.3900881-0.3918591,1.0233865-0.001833,1.4144511c0.390089,0.3911257,1.0234489,0.3919201,1.4145126,0.0018311
		c0.4803772-0.4791551,1.2225208-0.5762801,1.8099117-0.2369213c0.587513,0.3394194,0.8741894,1.0307722,0.6990452,1.6862917
		c-0.1750202,0.6554585-0.7682724,1.1119041-1.4467449,1.1130638H2.0001886C1.4478383,10.9997759,1,11.4476147,1,11.9999647
		c0,0.5524111,0.4478383,1.0001888,1.0001886,1.0001888h17.5033016h0.0018311l-0.0018311-1.0001888v-0.0169706l0.0018311,1.0171595
		c1.5830612-0.0028086,2.9672337-1.0677061,3.3758202-2.5971699C23.2896042,8.8735209,22.6208992,7.260179,21.2500954,6.4682817z"/>
</g>
</svg>
